G04 ================== begin FILE IDENTIFICATION RECORD ==================*
G04 Layout Name:  C:/USERS/USER/DESKTOP/DA CONVERTOR/allegro/DA CONVERTOR.brd*
G04 Film Name:    DrillDraw*
G04 File Format:  Gerber RS274X*
G04 File Origin:  Cadence Allegro 17.2-P019*
G04 Origin Date:  Wed Jul 31 14:31:59 2019*
G04 *
G04 Layer:  MANUFACTURING/NCLEGEND-1-2*
G04 Layer:  BOARD GEOMETRY/DESIGN_OUTLINE*
G04 *
G04 Offset:    (0.000 0.000)*
G04 Mirror:    No*
G04 Mode:      Positive*
G04 Rotation:  0*
G04 FullContactRelief:  No*
G04 UndefLineWidth:     0.100*
G04 ================== end FILE IDENTIFICATION RECORD ====================*
%FSLAX25Y25*MOIN*%
%IR0*IPPOS*OFA0.00000B0.00000*MIA0B0*SFA1.00000B1.00000*%
%AMMACRO13*
1,1,.003937,.025,0.0*
20,1,.003937,.025,0.0,.02462,-.004341,0.0*
1,1,.003937,.02462,-.004341*
20,1,.003937,.02462,-.004341,.023492,-.008551,0.0*
1,1,.003937,.023492,-.008551*
20,1,.003937,.023492,-.008551,.021651,-.0125,0.0*
1,1,.003937,.021651,-.0125*
20,1,.003937,.021651,-.0125,.019151,-.01607,0.0*
1,1,.003937,.019151,-.01607*
20,1,.003937,.019151,-.01607,.01607,-.019151,0.0*
1,1,.003937,.01607,-.019151*
20,1,.003937,.01607,-.019151,.0125,-.021651,0.0*
1,1,.003937,.0125,-.021651*
20,1,.003937,.0125,-.021651,.008551,-.023492,0.0*
1,1,.003937,.008551,-.023492*
20,1,.003937,.008551,-.023492,.004341,-.02462,0.0*
1,1,.003937,.004341,-.02462*
20,1,.003937,.004341,-.02462,0.0,-.025,0.0*
1,1,.003937,0.0,-.025*
20,1,.003937,0.0,-.025,-.004341,-.02462,0.0*
1,1,.003937,-.004341,-.02462*
20,1,.003937,-.004341,-.02462,-.008551,-.023492,0.0*
1,1,.003937,-.008551,-.023492*
20,1,.003937,-.008551,-.023492,-.0125,-.021651,0.0*
1,1,.003937,-.0125,-.021651*
20,1,.003937,-.0125,-.021651,-.01607,-.019151,0.0*
1,1,.003937,-.01607,-.019151*
20,1,.003937,-.01607,-.019151,-.019151,-.01607,0.0*
1,1,.003937,-.019151,-.01607*
20,1,.003937,-.019151,-.01607,-.021651,-.0125,0.0*
1,1,.003937,-.021651,-.0125*
20,1,.003937,-.021651,-.0125,-.023492,-.008551,0.0*
1,1,.003937,-.023492,-.008551*
20,1,.003937,-.023492,-.008551,-.02462,-.004341,0.0*
1,1,.003937,-.02462,-.004341*
20,1,.003937,-.02462,-.004341,-.025,0.0,0.0*
1,1,.003937,-.025,0.0*
20,1,.003937,-.025,0.0,-.02462,.004341,0.0*
1,1,.003937,-.02462,.004341*
20,1,.003937,-.02462,.004341,-.023492,.008551,0.0*
1,1,.003937,-.023492,.008551*
20,1,.003937,-.023492,.008551,-.021651,.0125,0.0*
1,1,.003937,-.021651,.0125*
20,1,.003937,-.021651,.0125,-.019151,.01607,0.0*
1,1,.003937,-.019151,.01607*
20,1,.003937,-.019151,.01607,-.01607,.019151,0.0*
1,1,.003937,-.01607,.019151*
20,1,.003937,-.01607,.019151,-.0125,.021651,0.0*
1,1,.003937,-.0125,.021651*
20,1,.003937,-.0125,.021651,-.008551,.023492,0.0*
1,1,.003937,-.008551,.023492*
20,1,.003937,-.008551,.023492,-.004341,.02462,0.0*
1,1,.003937,-.004341,.02462*
20,1,.003937,-.004341,.02462,0.0,.025,0.0*
1,1,.003937,0.0,.025*
20,1,.003937,0.0,.025,.004341,.02462,0.0*
1,1,.003937,.004341,.02462*
20,1,.003937,.004341,.02462,.008551,.023492,0.0*
1,1,.003937,.008551,.023492*
20,1,.003937,.008551,.023492,.0125,.021651,0.0*
1,1,.003937,.0125,.021651*
20,1,.003937,.0125,.021651,.01607,.019151,0.0*
1,1,.003937,.01607,.019151*
20,1,.003937,.01607,.019151,.019151,.01607,0.0*
1,1,.003937,.019151,.01607*
20,1,.003937,.019151,.01607,.021651,.0125,0.0*
1,1,.003937,.021651,.0125*
20,1,.003937,.021651,.0125,.023492,.008551,0.0*
1,1,.003937,.023492,.008551*
20,1,.003937,.023492,.008551,.02462,.004341,0.0*
1,1,.003937,.02462,.004341*
20,1,.003937,.02462,.004341,.025,0.0,0.0*
1,1,.003937,.025,0.0*
1,1,.003937,.0125,0.0*
20,1,.003937,.0125,0.0,-.0125,0.0,0.0*
1,1,.003937,-.0125,0.0*
1,1,.003937,0.0,.0125*
20,1,.003937,0.0,.0125,0.0,-.0125,0.0*
1,1,.003937,0.0,-.0125*
%
%ADD13MACRO13*%
%AMMACRO14*
1,1,.003937,.0125,0.0*
20,1,.003937,.0125,0.0,-.0125,0.0,0.0*
1,1,.003937,-.0125,0.0*
1,1,.003937,0.0,.0125*
20,1,.003937,0.0,.0125,0.0,-.0125,0.0*
1,1,.003937,0.0,-.0125*
%
%ADD14MACRO14*%
%AMMACRO12*
1,1,.003937,-.02,.0125*
20,1,.003937,-.02,.0125,-.019696,.015973,0.0*
1,1,.003937,-.019696,.015973*
20,1,.003937,-.019696,.015973,-.018794,.01934,0.0*
1,1,.003937,-.018794,.01934*
20,1,.003937,-.018794,.01934,-.017321,.0225,0.0*
1,1,.003937,-.017321,.0225*
20,1,.003937,-.017321,.0225,-.015321,.025356,0.0*
1,1,.003937,-.015321,.025356*
20,1,.003937,-.015321,.025356,-.012856,.027821,0.0*
1,1,.003937,-.012856,.027821*
20,1,.003937,-.012856,.027821,-.01,.029821,0.0*
1,1,.003937,-.01,.029821*
20,1,.003937,-.01,.029821,-.00684,.031294,0.0*
1,1,.003937,-.00684,.031294*
20,1,.003937,-.00684,.031294,-.003473,.032196,0.0*
1,1,.003937,-.003473,.032196*
20,1,.003937,-.003473,.032196,0.0,.0325,0.0*
1,1,.003937,0.0,.0325*
20,1,.003937,0.0,.0325,.003473,.032196,0.0*
1,1,.003937,.003473,.032196*
20,1,.003937,.003473,.032196,.00684,.031294,0.0*
1,1,.003937,.00684,.031294*
20,1,.003937,.00684,.031294,.01,.029821,0.0*
1,1,.003937,.01,.029821*
20,1,.003937,.01,.029821,.012856,.027821,0.0*
1,1,.003937,.012856,.027821*
20,1,.003937,.012856,.027821,.015321,.025356,0.0*
1,1,.003937,.015321,.025356*
20,1,.003937,.015321,.025356,.017321,.0225,0.0*
1,1,.003937,.017321,.0225*
20,1,.003937,.017321,.0225,.018794,.01934,0.0*
1,1,.003937,.018794,.01934*
20,1,.003937,.018794,.01934,.019696,.015973,0.0*
1,1,.003937,.019696,.015973*
20,1,.003937,.019696,.015973,.02,.0125,0.0*
1,1,.003937,.02,.0125*
20,1,.003937,.02,.0125,.02,-.0125,0.0*
1,1,.003937,.02,-.0125*
20,1,.003937,.02,-.0125,.019696,-.015973,0.0*
1,1,.003937,.019696,-.015973*
20,1,.003937,.019696,-.015973,.018794,-.01934,0.0*
1,1,.003937,.018794,-.01934*
20,1,.003937,.018794,-.01934,.017321,-.0225,0.0*
1,1,.003937,.017321,-.0225*
20,1,.003937,.017321,-.0225,.015321,-.025356,0.0*
1,1,.003937,.015321,-.025356*
20,1,.003937,.015321,-.025356,.012856,-.027821,0.0*
1,1,.003937,.012856,-.027821*
20,1,.003937,.012856,-.027821,.01,-.029821,0.0*
1,1,.003937,.01,-.029821*
20,1,.003937,.01,-.029821,.00684,-.031294,0.0*
1,1,.003937,.00684,-.031294*
20,1,.003937,.00684,-.031294,.003473,-.032196,0.0*
1,1,.003937,.003473,-.032196*
20,1,.003937,.003473,-.032196,0.0,-.0325,0.0*
1,1,.003937,0.0,-.0325*
20,1,.003937,0.0,-.0325,-.003473,-.032196,0.0*
1,1,.003937,-.003473,-.032196*
20,1,.003937,-.003473,-.032196,-.00684,-.031294,0.0*
1,1,.003937,-.00684,-.031294*
20,1,.003937,-.00684,-.031294,-.01,-.029821,0.0*
1,1,.003937,-.01,-.029821*
20,1,.003937,-.01,-.029821,-.012856,-.027821,0.0*
1,1,.003937,-.012856,-.027821*
20,1,.003937,-.012856,-.027821,-.015321,-.025356,0.0*
1,1,.003937,-.015321,-.025356*
20,1,.003937,-.015321,-.025356,-.017321,-.0225,0.0*
1,1,.003937,-.017321,-.0225*
20,1,.003937,-.017321,-.0225,-.018794,-.01934,0.0*
1,1,.003937,-.018794,-.01934*
20,1,.003937,-.018794,-.01934,-.019696,-.015973,0.0*
1,1,.003937,-.019696,-.015973*
20,1,.003937,-.019696,-.015973,-.02,-.0125,0.0*
1,1,.003937,-.02,-.0125*
20,1,.003937,-.02,-.0125,-.02,.0125,0.0*
1,1,.003937,-.02,.0125*
%
%ADD12MACRO12*%
%AMMACRO11*
1,1,.003937,.025,0.0*
20,1,.003937,.025,0.0,.0125,.021651,0.0*
1,1,.003937,.0125,.021651*
20,1,.003937,.0125,.021651,-.0125,.021651,0.0*
1,1,.003937,-.0125,.021651*
20,1,.003937,-.0125,.021651,-.025,0.0,0.0*
1,1,.003937,-.025,0.0*
20,1,.003937,-.025,0.0,-.0125,-.021651,0.0*
1,1,.003937,-.0125,-.021651*
20,1,.003937,-.0125,-.021651,.0125,-.021651,0.0*
1,1,.003937,.0125,-.021651*
20,1,.003937,.0125,-.021651,.025,0.0,0.0*
1,1,.003937,.025,0.0*
%
%ADD11MACRO11*%
%AMMACRO10*
1,1,.003937,-.02622,-.03748*
20,1,.003937,-.02622,-.03748,.02626,.03752,0.0*
1,1,.003937,.02626,.03752*
1,1,.003937,-.02622,.03752*
20,1,.003937,-.02622,.03752,.02626,-.03748,0.0*
1,1,.003937,.02626,-.03748*
%
%ADD10MACRO10*%
%ADD15C,.003937*%
G75*
%LPD*%
G75*
G54D10*
X19685Y19685D03*
Y255906D03*
X374016Y19685D03*
Y255906D03*
X484366Y8665D03*
G54D11*
X19685Y107795D03*
Y117795D03*
Y127795D03*
Y137795D03*
X46063Y214724D03*
Y204724D03*
X63386Y53780D03*
Y63780D03*
Y73780D03*
Y83780D03*
Y93780D03*
Y103780D03*
Y113780D03*
X93386Y53780D03*
Y63780D03*
Y73780D03*
Y83780D03*
Y93780D03*
Y103780D03*
Y113780D03*
X95669Y188504D03*
Y198504D03*
Y208504D03*
Y218504D03*
X125669Y188504D03*
Y198504D03*
Y208504D03*
Y218504D03*
X307874Y103071D03*
Y113071D03*
Y123071D03*
Y133071D03*
X307480Y188110D03*
Y198110D03*
Y208110D03*
Y218110D03*
X337874Y103071D03*
Y113071D03*
Y123071D03*
Y133071D03*
X337480Y188110D03*
Y198110D03*
Y208110D03*
Y218110D03*
X374016Y128110D03*
Y118110D03*
X484366Y31165D03*
G54D12*
X65354Y146457D03*
Y186457D03*
X91732Y164173D03*
X94094Y244094D03*
X137008Y46457D03*
X137795Y64173D03*
X137008Y101181D03*
X137795Y82677D03*
X131732Y164173D03*
X134094Y244094D03*
X177008Y46457D03*
X177795Y64173D03*
X177008Y101181D03*
X177795Y82677D03*
X172441Y177953D03*
Y217953D03*
X225591Y45669D03*
Y85669D03*
X225984Y101339D03*
Y141339D03*
Y154724D03*
Y194724D03*
X203543Y179134D03*
Y219134D03*
X250394Y46220D03*
Y86220D03*
X250000Y101575D03*
Y141575D03*
Y154094D03*
Y194094D03*
X300000Y50394D03*
X299764Y79134D03*
X340000Y50394D03*
X339764Y79134D03*
X363780Y159055D03*
Y199055D03*
X484366Y19917D03*
G54D13*
X134094Y243406D03*
Y244094D03*
X484366Y53665D03*
G54D14*
X139984Y118110D03*
X175984D03*
X301795Y237008D03*
X337795D03*
X484366Y42417D03*
G54D15*
G01X0Y0D02*
Y275591D01*
X393701D01*
Y0D01*
X0D01*
G01X476378Y3043D02*
Y94882D01*
X564449D01*
Y3043D01*
X476378D01*
G01X492354Y64291D02*
Y3043D01*
G01X476378Y36791D02*
X564449D01*
G01X476378Y25543D02*
X564449D01*
G01X476378Y14291D02*
X564449D01*
G01X490091Y65543D02*
X490756Y68043D01*
X491421Y65543D01*
G01X491181Y66417D02*
X490331D01*
G01X492421Y68043D02*
Y65543D01*
X493484D01*
G01X494618Y68043D02*
Y65543D01*
X495681D01*
G01X498957Y68043D02*
Y66252D01*
X499063Y65878D01*
X499276Y65626D01*
X499543Y65543D01*
X499811Y65626D01*
X500024Y65878D01*
X500130Y66252D01*
Y68043D01*
G01X501126Y65543D02*
Y68043D01*
X502354Y65543D01*
Y68043D01*
G01X503618D02*
X504256D01*
G01X503937D02*
Y65543D01*
G01X503618D02*
X504256D01*
G01X506134Y68043D02*
Y65543D01*
G01X505520Y68043D02*
X506748D01*
G01X507772Y65878D02*
X507984Y65669D01*
X508224Y65543D01*
X508437D01*
X508650Y65669D01*
X508811Y65878D01*
X508890Y66169D01*
X508839Y66461D01*
X508705Y66709D01*
X508465Y66878D01*
X508146Y66961D01*
X507957Y67126D01*
X507878Y67417D01*
X507933Y67709D01*
X508063Y67917D01*
X508252Y68043D01*
X508437D01*
X508622Y67961D01*
X508783Y67752D01*
G01X512059Y65543D02*
X512724Y68043D01*
X513390Y65543D01*
G01X513150Y66417D02*
X512299D01*
G01X514390Y65543D02*
Y68043D01*
X515055D01*
X515268Y67917D01*
X515402Y67752D01*
X515453Y67417D01*
X515402Y67087D01*
X515240Y66878D01*
X515055Y66752D01*
X514390D01*
G01X515055D02*
X515453Y65543D01*
G01X517650D02*
X516587D01*
Y68043D01*
X517650D01*
G01X517224Y66835D02*
X516587D01*
G01X521193Y68043D02*
X521831D01*
G01X521512D02*
Y65543D01*
G01X521193D02*
X521831D01*
G01X523094D02*
Y68043D01*
X524323Y65543D01*
Y68043D01*
G01X527409Y65543D02*
Y68043D01*
X528102Y65961D01*
X528795Y68043D01*
Y65543D01*
G01X529980Y68043D02*
X530618D01*
G01X530299D02*
Y65543D01*
G01X529980D02*
X530618D01*
G01X531965Y68043D02*
Y65543D01*
X533028D01*
G01X534161Y68043D02*
Y65543D01*
X535224D01*
G01X536571Y68043D02*
X537209D01*
G01X536890D02*
Y65543D01*
G01X536571D02*
X537209D01*
G01X538394D02*
Y68043D01*
X539087Y65961D01*
X539780Y68043D01*
Y65543D01*
G01X541815D02*
X540752D01*
Y68043D01*
X541815D01*
G01X541390Y66835D02*
X540752D01*
G01X543480Y68043D02*
Y65543D01*
G01X542866Y68043D02*
X544094D01*
G01X546209Y65543D02*
X545146D01*
Y68043D01*
X546209D01*
G01X545783Y66835D02*
X545146D01*
G01X547343Y65543D02*
Y68043D01*
X548008D01*
X548220Y67917D01*
X548354Y67752D01*
X548406Y67417D01*
X548354Y67087D01*
X548193Y66878D01*
X548008Y66752D01*
X547343D01*
G01X548008D02*
X548406Y65543D01*
G01X549512Y65878D02*
X549724Y65669D01*
X549965Y65543D01*
X550177D01*
X550390Y65669D01*
X550551Y65878D01*
X550630Y66169D01*
X550579Y66461D01*
X550445Y66709D01*
X550205Y66878D01*
X549886Y66961D01*
X549697Y67126D01*
X549618Y67417D01*
X549673Y67709D01*
X549803Y67917D01*
X549992Y68043D01*
X550177D01*
X550362Y67961D01*
X550524Y67752D01*
G01X478366Y60543D02*
Y63043D01*
X479382D01*
G01X479008Y61835D02*
X478366D01*
G01X480752Y63043D02*
X481390D01*
G01X481071D02*
Y60543D01*
G01X480752D02*
X481390D01*
G01X483429Y61791D02*
X483961D01*
Y61043D01*
X483799Y60791D01*
X483614Y60626D01*
X483346Y60543D01*
X483083Y60626D01*
X482894Y60791D01*
X482736Y61043D01*
X482630Y61335D01*
X482575Y61669D01*
Y61961D01*
X482630Y62209D01*
X482736Y62500D01*
X482894Y62752D01*
X483055Y62917D01*
X483268Y63043D01*
X483453D01*
X483665Y62961D01*
X483827Y62791D01*
G01X484878Y63043D02*
Y61252D01*
X484984Y60878D01*
X485197Y60626D01*
X485465Y60543D01*
X485732Y60626D01*
X485945Y60878D01*
X486051Y61252D01*
Y63043D01*
G01X487130Y60543D02*
Y63043D01*
X487795D01*
X488008Y62917D01*
X488142Y62752D01*
X488193Y62417D01*
X488142Y62087D01*
X487980Y61878D01*
X487795Y61752D01*
X487130D01*
G01X487795D02*
X488193Y60543D01*
G01X490390D02*
X489327D01*
Y63043D01*
X490390D01*
G01X489965Y61835D02*
X489327D01*
G01X476378Y69291D02*
X564449D01*
G01X476378Y64291D02*
X564449D01*
G01X476378Y59291D02*
X564449D01*
G01X476378Y48043D02*
X564449D01*
G01X492366Y91134D02*
Y93634D01*
X492898D01*
X493114Y93508D01*
X493272Y93343D01*
X493406Y93091D01*
X493512Y92799D01*
X493539Y92382D01*
X493512Y91969D01*
X493406Y91677D01*
X493272Y91425D01*
X493114Y91260D01*
X492898Y91134D01*
X492366D01*
G01X494618D02*
Y93634D01*
X495283D01*
X495496Y93508D01*
X495630Y93343D01*
X495681Y93008D01*
X495630Y92677D01*
X495469Y92469D01*
X495283Y92343D01*
X494618D01*
G01X495283D02*
X495681Y91134D01*
G01X497028Y93634D02*
X497665D01*
G01X497346D02*
Y91134D01*
G01X497028D02*
X497665D01*
G01X499012Y93634D02*
Y91134D01*
X500075D01*
G01X501209Y93634D02*
Y91134D01*
X502272D01*
G01X506720Y93425D02*
X506559Y93551D01*
X506374Y93634D01*
X506161D01*
X505921Y93508D01*
X505736Y93299D01*
X505602Y93051D01*
X505496Y92634D01*
X505469Y92260D01*
X505520Y91882D01*
X505602Y91634D01*
X505760Y91382D01*
X505949Y91217D01*
X506134Y91134D01*
X506319D01*
X506508Y91217D01*
X506665Y91343D01*
X506799Y91508D01*
G01X507772Y91134D02*
Y93634D01*
G01X508890D02*
Y91134D01*
G01Y92382D02*
X507772D01*
G01X509862Y91134D02*
X510528Y93634D01*
X511193Y91134D01*
G01X510953Y92008D02*
X510102D01*
G01X512193Y91134D02*
Y93634D01*
X512858D01*
X513071Y93508D01*
X513205Y93343D01*
X513256Y93008D01*
X513205Y92677D01*
X513043Y92469D01*
X512858Y92343D01*
X512193D01*
G01X512858D02*
X513256Y91134D01*
G01X514921Y93634D02*
Y91134D01*
G01X514307Y93634D02*
X515535D01*
G01X517118Y91051D02*
X517063Y91091D01*
Y91177D01*
X517118Y91217D01*
X517173Y91177D01*
Y91091D01*
X517118Y91051D01*
G01Y92177D02*
X517063Y92217D01*
Y92299D01*
X517118Y92343D01*
X517173Y92299D01*
Y92217D01*
X517118Y92177D01*
G01X521512Y93634D02*
Y91134D01*
G01X520898Y93634D02*
X522126D01*
G01X523709Y91134D02*
X523496Y91177D01*
X523311Y91343D01*
X523150Y91591D01*
X523043Y91882D01*
X522988Y92217D01*
Y92551D01*
X523043Y92886D01*
X523150Y93177D01*
X523311Y93425D01*
X523496Y93591D01*
X523709Y93634D01*
X523921Y93591D01*
X524106Y93425D01*
X524268Y93177D01*
X524374Y92886D01*
X524429Y92551D01*
Y92217D01*
X524374Y91882D01*
X524268Y91591D01*
X524106Y91343D01*
X523921Y91177D01*
X523709Y91134D01*
G01X525374D02*
Y93634D01*
X526012D01*
X526224Y93508D01*
X526386Y93217D01*
X526437Y92886D01*
X526386Y92551D01*
X526252Y92299D01*
X526012Y92177D01*
X525374D01*
G01X530299Y93634D02*
Y91134D01*
G01X529925Y92799D02*
X530673D01*
G01X532496Y91134D02*
X532335Y91177D01*
X532177Y91343D01*
X532071Y91634D01*
X532016Y91969D01*
X532071Y92299D01*
X532177Y92591D01*
X532335Y92760D01*
X532496Y92799D01*
X532657Y92760D01*
X532815Y92591D01*
X532921Y92299D01*
X532949Y91969D01*
X532921Y91634D01*
X532815Y91343D01*
X532657Y91177D01*
X532496Y91134D01*
G01X537102Y92469D02*
X537209Y92591D01*
X537287Y92799D01*
X537343Y93091D01*
X537287Y93343D01*
X537181Y93508D01*
X536996Y93634D01*
X536276D01*
Y91134D01*
X537157D01*
X537343Y91299D01*
X537449Y91551D01*
X537504Y91843D01*
X537449Y92134D01*
X537287Y92382D01*
X537102Y92469D01*
X536276D01*
G01X539087Y91134D02*
X538874Y91177D01*
X538689Y91343D01*
X538528Y91591D01*
X538421Y91882D01*
X538366Y92217D01*
Y92551D01*
X538421Y92886D01*
X538528Y93177D01*
X538689Y93425D01*
X538874Y93591D01*
X539087Y93634D01*
X539299Y93591D01*
X539484Y93425D01*
X539646Y93177D01*
X539752Y92886D01*
X539807Y92551D01*
Y92217D01*
X539752Y91882D01*
X539646Y91591D01*
X539484Y91343D01*
X539299Y91177D01*
X539087Y91134D01*
G01X541283Y93634D02*
Y91134D01*
G01X540669Y93634D02*
X541898D01*
G01X543480D02*
Y91134D01*
G01X542866Y93634D02*
X544094D01*
G01X545677Y91134D02*
X545465Y91177D01*
X545280Y91343D01*
X545118Y91591D01*
X545012Y91882D01*
X544957Y92217D01*
Y92551D01*
X545012Y92886D01*
X545118Y93177D01*
X545280Y93425D01*
X545465Y93591D01*
X545677Y93634D01*
X545890Y93591D01*
X546075Y93425D01*
X546236Y93177D01*
X546343Y92886D01*
X546398Y92551D01*
Y92217D01*
X546343Y91882D01*
X546236Y91591D01*
X546075Y91343D01*
X545890Y91177D01*
X545677Y91134D01*
G01X547181D02*
Y93634D01*
X547874Y91551D01*
X548567Y93634D01*
Y91134D01*
G01X505248Y7917D02*
X505409Y7626D01*
X505622Y7461D01*
X505862Y7417D01*
X506075Y7461D01*
X506287Y7665D01*
X506421Y7917D01*
X506449Y8165D01*
X506394Y8461D01*
X506209Y8665D01*
X506020Y8752D01*
X505780D01*
G01X506020D02*
X506181Y8874D01*
X506315Y9083D01*
X506366Y9335D01*
X506315Y9583D01*
X506181Y9791D01*
X505941Y9917D01*
X505701Y9874D01*
X505461Y9709D01*
G01X508031Y7335D02*
X507976Y7374D01*
Y7461D01*
X508031Y7500D01*
X508087Y7461D01*
Y7374D01*
X508031Y7335D01*
G01X510228Y7417D02*
Y9917D01*
X509909Y9417D01*
G01Y7417D02*
X510547D01*
G01X512370D02*
X512425Y7961D01*
X512504Y8417D01*
X512610Y8835D01*
X512744Y9291D01*
X512957Y9917D01*
X511894D01*
G01X514035Y7791D02*
X514197Y7583D01*
X514382Y7461D01*
X514622Y7417D01*
X514862Y7500D01*
X515047Y7665D01*
X515181Y7961D01*
X515209Y8291D01*
X515154Y8626D01*
X515020Y8835D01*
X514835Y9000D01*
X514650Y9043D01*
X514461Y9000D01*
X514224Y8835D01*
X514303Y9917D01*
X515020D01*
G01X505835Y43665D02*
X505622Y43583D01*
X505461Y43374D01*
X505354Y43122D01*
X505276Y42791D01*
X505248Y42413D01*
X505276Y42039D01*
X505354Y41709D01*
X505461Y41457D01*
X505622Y41248D01*
X505835Y41165D01*
X506047Y41248D01*
X506209Y41457D01*
X506315Y41709D01*
X506394Y42039D01*
X506421Y42413D01*
X506394Y42791D01*
X506315Y43122D01*
X506209Y43374D01*
X506047Y43583D01*
X505835Y43665D01*
G01X508031Y41083D02*
X507976Y41122D01*
Y41209D01*
X508031Y41248D01*
X508087Y41209D01*
Y41122D01*
X508031Y41083D01*
G01X509720Y42209D02*
X509909Y42500D01*
X510067Y42665D01*
X510283Y42748D01*
X510469Y42665D01*
X510602Y42500D01*
X510709Y42248D01*
X510736Y41957D01*
X510709Y41709D01*
X510602Y41457D01*
X510441Y41248D01*
X510256Y41165D01*
X510043Y41248D01*
X509854Y41500D01*
X509748Y41874D01*
X509720Y42291D01*
X509776Y42831D01*
X509854Y43122D01*
X509988Y43413D01*
X510173Y43622D01*
X510362Y43665D01*
X510547Y43583D01*
X510681Y43374D01*
G01X511839Y41665D02*
X512000Y41374D01*
X512213Y41209D01*
X512453Y41165D01*
X512665Y41209D01*
X512878Y41413D01*
X513012Y41665D01*
X513039Y41913D01*
X512984Y42209D01*
X512799Y42413D01*
X512610Y42500D01*
X512370D01*
G01X512610D02*
X512772Y42622D01*
X512906Y42831D01*
X512957Y43083D01*
X512906Y43331D01*
X512772Y43539D01*
X512531Y43665D01*
X512291Y43622D01*
X512051Y43457D01*
G01X514035Y41539D02*
X514197Y41331D01*
X514382Y41209D01*
X514622Y41165D01*
X514862Y41248D01*
X515047Y41413D01*
X515181Y41709D01*
X515209Y42039D01*
X515154Y42374D01*
X515020Y42583D01*
X514835Y42748D01*
X514650Y42791D01*
X514461Y42748D01*
X514224Y42583D01*
X514303Y43665D01*
X515020D01*
G01X505835Y32417D02*
X505622Y32335D01*
X505461Y32126D01*
X505354Y31874D01*
X505276Y31543D01*
X505248Y31165D01*
X505276Y30791D01*
X505354Y30461D01*
X505461Y30209D01*
X505622Y30000D01*
X505835Y29917D01*
X506047Y30000D01*
X506209Y30209D01*
X506315Y30461D01*
X506394Y30791D01*
X506421Y31165D01*
X506394Y31543D01*
X506315Y31874D01*
X506209Y32126D01*
X506047Y32335D01*
X505835Y32417D01*
G01X508031Y29835D02*
X507976Y29874D01*
Y29961D01*
X508031Y30000D01*
X508087Y29961D01*
Y29874D01*
X508031Y29835D01*
G01X509776Y30209D02*
X509961Y30000D01*
X510173Y29917D01*
X510390Y30000D01*
X510575Y30252D01*
X510709Y30626D01*
X510760Y31000D01*
Y31461D01*
X510709Y31835D01*
X510575Y32165D01*
X510413Y32335D01*
X510228Y32417D01*
X510016Y32335D01*
X509854Y32165D01*
X509748Y31917D01*
X509697Y31583D01*
X509748Y31291D01*
X509882Y31000D01*
X510043Y30835D01*
X510228Y30791D01*
X510441Y30874D01*
X510602Y31083D01*
X510760Y31461D01*
G01X512425Y29917D02*
Y32417D01*
X512106Y31917D01*
G01Y29917D02*
X512744D01*
G01X514941D02*
Y32417D01*
X513957Y30626D01*
X515287D01*
G01X505835Y18665D02*
Y21165D01*
X505516Y20665D01*
G01Y18665D02*
X506154D01*
G01X508031Y18583D02*
X507976Y18622D01*
Y18709D01*
X508031Y18748D01*
X508087Y18709D01*
Y18622D01*
X508031Y18583D01*
G01X510228Y21165D02*
X510016Y21083D01*
X509854Y20874D01*
X509748Y20622D01*
X509669Y20291D01*
X509642Y19913D01*
X509669Y19539D01*
X509748Y19209D01*
X509854Y18957D01*
X510016Y18748D01*
X510228Y18665D01*
X510441Y18748D01*
X510602Y18957D01*
X510709Y19209D01*
X510787Y19539D01*
X510815Y19913D01*
X510787Y20291D01*
X510709Y20622D01*
X510602Y20874D01*
X510441Y21083D01*
X510228Y21165D01*
G01X511917Y19709D02*
X512106Y20000D01*
X512264Y20165D01*
X512480Y20248D01*
X512665Y20165D01*
X512799Y20000D01*
X512906Y19748D01*
X512933Y19457D01*
X512906Y19209D01*
X512799Y18957D01*
X512638Y18748D01*
X512453Y18665D01*
X512240Y18748D01*
X512051Y19000D01*
X511945Y19374D01*
X511917Y19791D01*
X511972Y20331D01*
X512051Y20622D01*
X512185Y20913D01*
X512370Y21122D01*
X512559Y21165D01*
X512744Y21083D01*
X512878Y20874D01*
G01X514567Y18665D02*
X514622Y19209D01*
X514701Y19665D01*
X514807Y20083D01*
X514941Y20539D01*
X515154Y21165D01*
X514091D01*
G01X496539Y60543D02*
Y63043D01*
X497555D01*
G01X497181Y61835D02*
X496539D01*
G01X498925Y63043D02*
X499563D01*
G01X499244D02*
Y60543D01*
G01X498925D02*
X499563D01*
G01X500827D02*
Y63043D01*
X502055Y60543D01*
Y63043D01*
G01X503319D02*
X503957D01*
G01X503638D02*
Y60543D01*
G01X503319D02*
X503957D01*
G01X505276Y60878D02*
X505488Y60669D01*
X505728Y60543D01*
X505941D01*
X506154Y60669D01*
X506315Y60878D01*
X506394Y61169D01*
X506343Y61461D01*
X506209Y61709D01*
X505969Y61878D01*
X505650Y61961D01*
X505461Y62126D01*
X505382Y62417D01*
X505437Y62709D01*
X505567Y62917D01*
X505756Y63043D01*
X505941D01*
X506126Y62961D01*
X506287Y62752D01*
G01X507472Y60543D02*
Y63043D01*
G01X508591D02*
Y60543D01*
G01Y61791D02*
X507472D01*
G01X510760Y60543D02*
X509697D01*
Y63043D01*
X510760D01*
G01X510335Y61835D02*
X509697D01*
G01X511839Y60543D02*
Y63043D01*
X512370D01*
X512587Y62917D01*
X512744Y62752D01*
X512878Y62500D01*
X512984Y62209D01*
X513012Y61791D01*
X512984Y61378D01*
X512878Y61087D01*
X512744Y60835D01*
X512587Y60669D01*
X512370Y60543D01*
X511839D01*
G01X513823Y59709D02*
X515421D01*
G01X516260Y60878D02*
X516472Y60669D01*
X516713Y60543D01*
X516925D01*
X517138Y60669D01*
X517299Y60878D01*
X517378Y61169D01*
X517327Y61461D01*
X517193Y61709D01*
X516953Y61878D01*
X516634Y61961D01*
X516445Y62126D01*
X516366Y62417D01*
X516421Y62709D01*
X516551Y62917D01*
X516740Y63043D01*
X516925D01*
X517110Y62961D01*
X517272Y62752D01*
G01X518697Y63043D02*
X519335D01*
G01X519016D02*
Y60543D01*
G01X518697D02*
X519335D01*
G01X520705Y63043D02*
X521720D01*
X520705Y60543D01*
X521720D01*
G01X523941D02*
X522878D01*
Y63043D01*
X523941D01*
G01X523516Y61835D02*
X522878D01*
G01X506933Y54917D02*
X506720Y54835D01*
X506559Y54626D01*
X506453Y54374D01*
X506374Y54043D01*
X506346Y53665D01*
X506374Y53291D01*
X506453Y52961D01*
X506559Y52709D01*
X506720Y52500D01*
X506933Y52417D01*
X507146Y52500D01*
X507307Y52709D01*
X507413Y52961D01*
X507492Y53291D01*
X507520Y53665D01*
X507492Y54043D01*
X507413Y54374D01*
X507307Y54626D01*
X507146Y54835D01*
X506933Y54917D01*
G01X509130Y52335D02*
X509075Y52374D01*
Y52461D01*
X509130Y52500D01*
X509185Y52461D01*
Y52374D01*
X509130Y52335D01*
G01X510740Y52917D02*
X510902Y52626D01*
X511114Y52461D01*
X511354Y52417D01*
X511567Y52461D01*
X511780Y52665D01*
X511913Y52917D01*
X511941Y53165D01*
X511886Y53461D01*
X511701Y53665D01*
X511512Y53752D01*
X511272D01*
G01X511512D02*
X511673Y53874D01*
X511807Y54083D01*
X511858Y54335D01*
X511807Y54583D01*
X511673Y54791D01*
X511433Y54917D01*
X511193Y54874D01*
X510953Y54709D01*
G01X512937Y52917D02*
X513098Y52626D01*
X513311Y52461D01*
X513551Y52417D01*
X513764Y52461D01*
X513976Y52665D01*
X514110Y52917D01*
X514138Y53165D01*
X514083Y53461D01*
X513898Y53665D01*
X513709Y53752D01*
X513469D01*
G01X513709D02*
X513870Y53874D01*
X514004Y54083D01*
X514055Y54335D01*
X514004Y54583D01*
X513870Y54791D01*
X513630Y54917D01*
X513390Y54874D01*
X513150Y54709D01*
G01X528886Y7417D02*
Y9917D01*
X530114Y7417D01*
Y9917D01*
G01X531697Y7417D02*
X531484Y7461D01*
X531299Y7626D01*
X531138Y7874D01*
X531031Y8165D01*
X530976Y8500D01*
Y8835D01*
X531031Y9169D01*
X531138Y9461D01*
X531299Y9709D01*
X531484Y9874D01*
X531697Y9917D01*
X531909Y9874D01*
X532094Y9709D01*
X532256Y9461D01*
X532362Y9169D01*
X532417Y8835D01*
Y8500D01*
X532362Y8165D01*
X532256Y7874D01*
X532094Y7626D01*
X531909Y7461D01*
X531697Y7417D01*
G01X533280D02*
Y9917D01*
X534508Y7417D01*
Y9917D01*
G01X535744Y8252D02*
X536437D01*
G01X537756Y7417D02*
Y9917D01*
X538394D01*
X538606Y9791D01*
X538768Y9500D01*
X538819Y9169D01*
X538768Y8835D01*
X538634Y8583D01*
X538394Y8461D01*
X537756D01*
G01X539953Y9917D02*
Y7417D01*
X541016D01*
G01X542016D02*
X542681Y9917D01*
X543346Y7417D01*
G01X543106Y8291D02*
X542256D01*
G01X544878Y9917D02*
Y7417D01*
G01X544264Y9917D02*
X545492D01*
G01X547606Y7417D02*
X546543D01*
Y9917D01*
X547606D01*
G01X547181Y8709D02*
X546543D01*
G01X548685Y7417D02*
Y9917D01*
X549217D01*
X549433Y9791D01*
X549591Y9626D01*
X549724Y9374D01*
X549831Y9083D01*
X549858Y8665D01*
X549831Y8252D01*
X549724Y7961D01*
X549591Y7709D01*
X549433Y7543D01*
X549217Y7417D01*
X548685D01*
G01X528102Y64291D02*
Y3043D01*
G01X550669Y64291D02*
Y3043D01*
G01X533362Y41165D02*
Y43665D01*
X534000D01*
X534213Y43539D01*
X534374Y43248D01*
X534425Y42917D01*
X534374Y42583D01*
X534240Y42331D01*
X534000Y42209D01*
X533362D01*
G01X535559Y43665D02*
Y41165D01*
X536622D01*
G01X537622D02*
X538287Y43665D01*
X538953Y41165D01*
G01X538713Y42039D02*
X537862D01*
G01X540484Y43665D02*
Y41165D01*
G01X539870Y43665D02*
X541098D01*
G01X543213Y41165D02*
X542150D01*
Y43665D01*
X543213D01*
G01X542787Y42457D02*
X542150D01*
G01X544291Y41165D02*
Y43665D01*
X544823D01*
X545039Y43539D01*
X545197Y43374D01*
X545331Y43122D01*
X545437Y42831D01*
X545465Y42413D01*
X545437Y42000D01*
X545331Y41709D01*
X545197Y41457D01*
X545039Y41291D01*
X544823Y41165D01*
X544291D01*
G01X533362Y29917D02*
Y32417D01*
X534000D01*
X534213Y32291D01*
X534374Y32000D01*
X534425Y31669D01*
X534374Y31335D01*
X534240Y31083D01*
X534000Y30961D01*
X533362D01*
G01X535559Y32417D02*
Y29917D01*
X536622D01*
G01X537622D02*
X538287Y32417D01*
X538953Y29917D01*
G01X538713Y30791D02*
X537862D01*
G01X540484Y32417D02*
Y29917D01*
G01X539870Y32417D02*
X541098D01*
G01X543213Y29917D02*
X542150D01*
Y32417D01*
X543213D01*
G01X542787Y31209D02*
X542150D01*
G01X544291Y29917D02*
Y32417D01*
X544823D01*
X545039Y32291D01*
X545197Y32126D01*
X545331Y31874D01*
X545437Y31583D01*
X545465Y31165D01*
X545437Y30752D01*
X545331Y30461D01*
X545197Y30209D01*
X545039Y30043D01*
X544823Y29917D01*
X544291D01*
G01X533362Y18665D02*
Y21165D01*
X534000D01*
X534213Y21039D01*
X534374Y20748D01*
X534425Y20417D01*
X534374Y20083D01*
X534240Y19831D01*
X534000Y19709D01*
X533362D01*
G01X535559Y21165D02*
Y18665D01*
X536622D01*
G01X537622D02*
X538287Y21165D01*
X538953Y18665D01*
G01X538713Y19539D02*
X537862D01*
G01X540484Y21165D02*
Y18665D01*
G01X539870Y21165D02*
X541098D01*
G01X543213Y18665D02*
X542150D01*
Y21165D01*
X543213D01*
G01X542787Y19957D02*
X542150D01*
G01X544291Y18665D02*
Y21165D01*
X544823D01*
X545039Y21039D01*
X545197Y20874D01*
X545331Y20622D01*
X545437Y20331D01*
X545465Y19913D01*
X545437Y19500D01*
X545331Y19209D01*
X545197Y18957D01*
X545039Y18791D01*
X544823Y18665D01*
X544291D01*
G01X533362Y60543D02*
Y63043D01*
X534000D01*
X534213Y62917D01*
X534374Y62626D01*
X534425Y62295D01*
X534374Y61961D01*
X534240Y61709D01*
X534000Y61587D01*
X533362D01*
G01X535559Y63043D02*
Y60543D01*
X536622D01*
G01X537622D02*
X538287Y63043D01*
X538953Y60543D01*
G01X538713Y61417D02*
X537862D01*
G01X540484Y63043D02*
Y60543D01*
G01X539870Y63043D02*
X541098D01*
G01X543213Y60543D02*
X542150D01*
Y63043D01*
X543213D01*
G01X542787Y61835D02*
X542150D01*
G01X544291Y60543D02*
Y63043D01*
X544823D01*
X545039Y62917D01*
X545197Y62752D01*
X545331Y62500D01*
X545437Y62209D01*
X545465Y61791D01*
X545437Y61378D01*
X545331Y61087D01*
X545197Y60835D01*
X545039Y60669D01*
X544823Y60543D01*
X544291D01*
G01X533362Y52417D02*
Y54917D01*
X534000D01*
X534213Y54791D01*
X534374Y54500D01*
X534425Y54169D01*
X534374Y53835D01*
X534240Y53583D01*
X534000Y53461D01*
X533362D01*
G01X535559Y54917D02*
Y52417D01*
X536622D01*
G01X537622D02*
X538287Y54917D01*
X538953Y52417D01*
G01X538713Y53291D02*
X537862D01*
G01X540484Y54917D02*
Y52417D01*
G01X539870Y54917D02*
X541098D01*
G01X543213Y52417D02*
X542150D01*
Y54917D01*
X543213D01*
G01X542787Y53709D02*
X542150D01*
G01X544291Y52417D02*
Y54917D01*
X544823D01*
X545039Y54791D01*
X545197Y54626D01*
X545331Y54374D01*
X545437Y54083D01*
X545465Y53665D01*
X545437Y53252D01*
X545331Y52961D01*
X545197Y52709D01*
X545039Y52543D01*
X544823Y52417D01*
X544291D01*
G01X557878Y7417D02*
Y9917D01*
X556894Y8126D01*
X558224D01*
G01X557878Y41165D02*
Y43665D01*
X556894Y41874D01*
X558224D01*
G01X556780Y29917D02*
Y32417D01*
X555795Y30626D01*
X557126D01*
G01X558150Y30961D02*
X558339Y31252D01*
X558496Y31417D01*
X558713Y31500D01*
X558898Y31417D01*
X559031Y31252D01*
X559138Y31000D01*
X559165Y30709D01*
X559138Y30461D01*
X559031Y30209D01*
X558870Y30000D01*
X558685Y29917D01*
X558472Y30000D01*
X558283Y30252D01*
X558177Y30626D01*
X558150Y31043D01*
X558205Y31583D01*
X558283Y31874D01*
X558417Y32165D01*
X558602Y32374D01*
X558791Y32417D01*
X558976Y32335D01*
X559110Y32126D01*
G01X555874Y19165D02*
X556035Y18874D01*
X556248Y18709D01*
X556488Y18665D01*
X556701Y18709D01*
X556913Y18913D01*
X557047Y19165D01*
X557075Y19413D01*
X557020Y19709D01*
X556835Y19913D01*
X556646Y20000D01*
X556406D01*
G01X556646D02*
X556807Y20122D01*
X556941Y20331D01*
X556992Y20583D01*
X556941Y20831D01*
X556807Y21039D01*
X556567Y21165D01*
X556327Y21122D01*
X556087Y20957D01*
G01X558150Y19709D02*
X558339Y20000D01*
X558496Y20165D01*
X558713Y20248D01*
X558898Y20165D01*
X559031Y20000D01*
X559138Y19748D01*
X559165Y19457D01*
X559138Y19209D01*
X559031Y18957D01*
X558870Y18748D01*
X558685Y18665D01*
X558472Y18748D01*
X558283Y19000D01*
X558177Y19374D01*
X558150Y19791D01*
X558205Y20331D01*
X558283Y20622D01*
X558417Y20913D01*
X558602Y21122D01*
X558791Y21165D01*
X558976Y21083D01*
X559110Y20874D01*
G01X555362Y60543D02*
X555150Y60587D01*
X554965Y60752D01*
X554803Y61000D01*
X554697Y61291D01*
X554642Y61626D01*
Y61961D01*
X554697Y62295D01*
X554803Y62587D01*
X554965Y62835D01*
X555150Y63000D01*
X555362Y63043D01*
X555575Y63000D01*
X555760Y62835D01*
X555921Y62587D01*
X556028Y62295D01*
X556083Y61961D01*
Y61626D01*
X556028Y61291D01*
X555921Y61000D01*
X555760Y60752D01*
X555575Y60587D01*
X555362Y60543D01*
G01X555575Y61209D02*
X555894Y60543D01*
G01X557559Y63043D02*
Y60543D01*
G01X556945Y63043D02*
X558173D01*
G01X559756Y60543D02*
Y61669D01*
X559224Y63043D01*
G01X560287D02*
X559756Y61669D01*
G01X557051Y54500D02*
X557213Y54752D01*
X557398Y54874D01*
X557614Y54917D01*
X557878Y54835D01*
X558067Y54626D01*
X558118Y54374D01*
X558091Y54126D01*
X557984Y53917D01*
X557453Y53500D01*
X557213Y53209D01*
X557051Y52791D01*
X557000Y52417D01*
X558118D01*
M02*
