G04 ================== begin FILE IDENTIFICATION RECORD ==================*
G04 Layout Name:  C:/USERS/USER/DESKTOP/DA CONVERTOR/allegro/DA CONVERTOR.brd*
G04 Film Name:    SilkT*
G04 File Format:  Gerber RS274X*
G04 File Origin:  Cadence Allegro 17.2-P019*
G04 Origin Date:  Wed Jul 31 14:31:59 2019*
G04 *
G04 Layer:  REF DES/SILKSCREEN_TOP*
G04 Layer:  PACKAGE GEOMETRY/SILKSCREEN_TOP*
G04 Layer:  BOARD GEOMETRY/SILKSCREEN_TOP*
G04 *
G04 Offset:    (0.000 0.000)*
G04 Mirror:    No*
G04 Mode:      Positive*
G04 Rotation:  0*
G04 FullContactRelief:  No*
G04 UndefLineWidth:     0.200*
G04 ================== end FILE IDENTIFICATION RECORD ====================*
%FSLAX25Y25*MOIN*%
%IR0*IPPOS*OFA0.00000B0.00000*MIA0B0*SFA1.00000B1.00000*%
%ADD10C,.019685*%
%ADD11C,.007874*%
G75*
%LPD*%
G75*
G54D10*
G01X141209Y10236D02*
X135957D01*
Y25984D01*
X141209D01*
G01X139106Y18374D02*
X135957D01*
G01X144429Y25984D02*
Y10236D01*
X149681D01*
G01X158154D02*
X152902D01*
Y25984D01*
X158154D01*
G01X156051Y18374D02*
X152902D01*
G01X166886Y24673D02*
X166098Y25461D01*
X165181Y25984D01*
X164130D01*
X162949Y25197D01*
X162031Y23886D01*
X161374Y22311D01*
X160850Y19685D01*
X160720Y17323D01*
X160980Y14961D01*
X161374Y13386D01*
X162161Y11811D01*
X163083Y10760D01*
X164000Y10236D01*
X164917D01*
X165839Y10760D01*
X166626Y11547D01*
X167280Y12598D01*
G01X172472Y25984D02*
Y10236D01*
G01X169453Y25984D02*
X175492D01*
G01X178319Y10236D02*
Y25984D01*
X181602D01*
X182650Y25197D01*
X183307Y24146D01*
X183571Y22047D01*
X183307Y19949D01*
X182520Y18634D01*
X181602Y17846D01*
X178319D01*
G01X181602D02*
X183571Y10236D01*
G01X189417D02*
X188366Y10500D01*
X187449Y11547D01*
X186661Y13122D01*
X186138Y14961D01*
X185874Y17059D01*
Y19161D01*
X186138Y21260D01*
X186661Y23098D01*
X187449Y24673D01*
X188366Y25720D01*
X189417Y25984D01*
X190469Y25720D01*
X191386Y24673D01*
X192173Y23098D01*
X192697Y21260D01*
X192961Y19161D01*
Y17059D01*
X192697Y14961D01*
X192173Y13122D01*
X191386Y11547D01*
X190469Y10500D01*
X189417Y10236D01*
G01X194870D02*
Y25984D01*
X200909Y10236D01*
Y25984D01*
G01X204787D02*
X207937D01*
G01X206362D02*
Y10236D01*
G01X204787D02*
X207937D01*
G01X217720Y24673D02*
X216933Y25461D01*
X216016Y25984D01*
X214965D01*
X213783Y25197D01*
X212866Y23886D01*
X212209Y22311D01*
X211685Y19685D01*
X211555Y17323D01*
X211815Y14961D01*
X212209Y13386D01*
X212996Y11811D01*
X213917Y10760D01*
X214835Y10236D01*
X215752D01*
X216673Y10760D01*
X217461Y11547D01*
X218114Y12598D01*
G01X234665Y24673D02*
X233878Y25461D01*
X232961Y25984D01*
X231909D01*
X230728Y25197D01*
X229811Y23886D01*
X229154Y22311D01*
X228630Y19685D01*
X228500Y17323D01*
X228760Y14961D01*
X229154Y13386D01*
X229941Y11811D01*
X230862Y10760D01*
X231780Y10236D01*
X232697D01*
X233618Y10760D01*
X234406Y11547D01*
X235059Y12598D01*
G01X236972Y10236D02*
X240252Y25984D01*
X243531Y10236D01*
G01X242350Y15748D02*
X238154D01*
G01X245839Y10236D02*
Y25984D01*
X248461D01*
X249512Y25197D01*
X250299Y24146D01*
X250957Y22571D01*
X251480Y20736D01*
X251610Y18110D01*
X251480Y15484D01*
X250957Y13650D01*
X250299Y12075D01*
X249512Y11024D01*
X248461Y10236D01*
X245839D01*
G01X143965Y252362D02*
Y268110D01*
X146587D01*
X147638Y267323D01*
X148425Y266272D01*
X149083Y264697D01*
X149606Y262862D01*
X149736Y260236D01*
X149606Y257610D01*
X149083Y255776D01*
X148425Y254201D01*
X147638Y253150D01*
X146587Y252362D01*
X143965D01*
G01X152043D02*
X155323Y268110D01*
X158602Y252362D01*
G01X157421Y257874D02*
X153224D01*
G01X175154Y266799D02*
X174366Y267587D01*
X173449Y268110D01*
X172398D01*
X171217Y267323D01*
X170299Y266012D01*
X169642Y264437D01*
X169118Y261811D01*
X168988Y259449D01*
X169248Y257087D01*
X169642Y255512D01*
X170429Y253937D01*
X171350Y252886D01*
X172268Y252362D01*
X173185D01*
X174106Y252886D01*
X174894Y253673D01*
X175547Y254724D01*
G01X180740Y252362D02*
X179689Y252626D01*
X178772Y253673D01*
X177984Y255248D01*
X177461Y257087D01*
X177197Y259185D01*
Y261287D01*
X177461Y263386D01*
X177984Y265224D01*
X178772Y266799D01*
X179689Y267846D01*
X180740Y268110D01*
X181791Y267846D01*
X182709Y266799D01*
X183496Y265224D01*
X184020Y263386D01*
X184283Y261287D01*
Y259185D01*
X184020Y257087D01*
X183496Y255248D01*
X182709Y253673D01*
X181791Y252626D01*
X180740Y252362D01*
G01X186193D02*
Y268110D01*
X192232Y252362D01*
Y268110D01*
G01X194406D02*
X197685Y252362D01*
X200965Y268110D01*
G01X208783Y252362D02*
X203531D01*
Y268110D01*
X208783D01*
G01X206681Y260500D02*
X203531D01*
G01X212004Y252362D02*
Y268110D01*
X215287D01*
X216335Y267323D01*
X216992Y266272D01*
X217256Y264173D01*
X216992Y262075D01*
X216205Y260760D01*
X215287Y259972D01*
X212004D01*
G01X215287D02*
X217256Y252362D01*
G01X223102Y268110D02*
Y252362D01*
G01X220083Y268110D02*
X226122D01*
G01X231575Y252362D02*
X230524Y252626D01*
X229606Y253673D01*
X228819Y255248D01*
X228295Y257087D01*
X228031Y259185D01*
Y261287D01*
X228295Y263386D01*
X228819Y265224D01*
X229606Y266799D01*
X230524Y267846D01*
X231575Y268110D01*
X232626Y267846D01*
X233543Y266799D01*
X234331Y265224D01*
X234854Y263386D01*
X235118Y261287D01*
Y259185D01*
X234854Y257087D01*
X234331Y255248D01*
X233543Y253673D01*
X232626Y252626D01*
X231575Y252362D01*
G01X237421D02*
Y268110D01*
X240705D01*
X241752Y267323D01*
X242409Y266272D01*
X242673Y264173D01*
X242409Y262075D01*
X241622Y260760D01*
X240705Y259972D01*
X237421D01*
G01X240705D02*
X242673Y252362D01*
G54D11*
G01X14685Y142795D02*
X24685D01*
Y102795D01*
X14685D01*
Y142795D01*
G01X26886Y142311D02*
X26386Y141996D01*
X26051Y141614D01*
X25886Y141173D01*
X26051Y140665D01*
X26386Y140283D01*
X26886Y139906D01*
X27551Y139780D01*
X30886D01*
G01X25886Y135949D02*
X30886D01*
X29886Y136709D01*
G01X25886D02*
Y135189D01*
G01X24906Y223307D02*
X24528Y223559D01*
X24083Y223724D01*
X23579D01*
X23008Y223472D01*
X22563Y223059D01*
X22248Y222559D01*
X21992Y221724D01*
X21929Y220972D01*
X22059Y220224D01*
X22248Y219724D01*
X22626Y219224D01*
X23071Y218890D01*
X23512Y218724D01*
X23957D01*
X24402Y218890D01*
X24780Y219142D01*
X25098Y219472D01*
G01X28610Y218724D02*
Y223724D01*
X27850Y222724D01*
G01Y218724D02*
X29370D01*
G01X56063Y209724D02*
G03I-10000J0D01*
G01X67386Y121280D02*
Y46280D01*
X89386D01*
Y121280D01*
X83386D01*
X80886Y118780D01*
X75886D01*
X73386Y121280D01*
X67386D01*
G01X60354Y152457D02*
Y180457D01*
X70354D01*
Y152457D01*
X60354D01*
G01X71236Y170957D02*
Y174055D01*
X72197D01*
X72504Y173902D01*
X72693Y173693D01*
X72772Y173280D01*
X72693Y172866D01*
X72465Y172610D01*
X72197Y172453D01*
X71236D01*
G01X72197D02*
X72772Y170957D01*
G01X74260Y171575D02*
X74488Y171217D01*
X74795Y171008D01*
X75142Y170957D01*
X75449Y171008D01*
X75752Y171268D01*
X75945Y171575D01*
X75984Y171886D01*
X75906Y172248D01*
X75638Y172504D01*
X75370Y172610D01*
X75028D01*
G01X75370D02*
X75602Y172764D01*
X75791Y173024D01*
X75870Y173331D01*
X75791Y173642D01*
X75602Y173902D01*
X75256Y174055D01*
X74909Y174004D01*
X74567Y173795D01*
G01X101945Y106280D02*
Y102697D01*
X102197Y101945D01*
X102705Y101445D01*
X103335Y101280D01*
X103969Y101445D01*
X104476Y101945D01*
X104728Y102697D01*
Y106280D01*
G01X107043Y102280D02*
X107421Y101697D01*
X107929Y101362D01*
X108500Y101280D01*
X109004Y101362D01*
X109512Y101780D01*
X109827Y102280D01*
X109890Y102780D01*
X109764Y103362D01*
X109323Y103780D01*
X108878Y103945D01*
X108307D01*
G01X108878D02*
X109260Y104197D01*
X109575Y104614D01*
X109701Y105114D01*
X109575Y105614D01*
X109260Y106028D01*
X108689Y106280D01*
X108118Y106197D01*
X107547Y105862D01*
G01X97732Y169173D02*
X125732D01*
Y159173D01*
X97732D01*
Y169173D01*
G01X99669Y223504D02*
X105669D01*
X108169Y221004D01*
X113169D01*
X115669Y223504D01*
X121669D01*
Y183504D01*
X99669D01*
Y223504D01*
G01X100094Y249094D02*
X128094D01*
Y239094D01*
X100094D01*
Y249094D01*
G01X116232Y158291D02*
X119331D01*
Y157331D01*
X119177Y157024D01*
X118969Y156835D01*
X118555Y156756D01*
X118142Y156835D01*
X117886Y157063D01*
X117728Y157331D01*
Y158291D01*
G01Y157331D02*
X116232Y156756D01*
G01X118815Y155154D02*
X119126Y154925D01*
X119280Y154654D01*
X119331Y154350D01*
X119228Y153965D01*
X118969Y153697D01*
X118657Y153622D01*
X118350Y153657D01*
X118091Y153811D01*
X117575Y154579D01*
X117213Y154925D01*
X116697Y155154D01*
X116232Y155228D01*
Y153622D01*
G01X131327Y217803D02*
Y214220D01*
X131579Y213469D01*
X132087Y212969D01*
X132717Y212803D01*
X133350Y212969D01*
X133858Y213469D01*
X134110Y214220D01*
Y217803D01*
G01X137815Y212803D02*
Y217803D01*
X137055Y216803D01*
G01Y212803D02*
X138575D01*
G01X118594Y238213D02*
X121693D01*
Y237252D01*
X121539Y236945D01*
X121331Y236756D01*
X120917Y236677D01*
X120504Y236756D01*
X120248Y236984D01*
X120091Y237252D01*
Y238213D01*
G01Y237252D02*
X118594Y236677D01*
G01Y234346D02*
X121693D01*
X121075Y234807D01*
G01X118594D02*
Y233886D01*
G01X161508Y42122D02*
X164606D01*
Y41161D01*
X164453Y40854D01*
X164244Y40665D01*
X163831Y40587D01*
X163417Y40665D01*
X163161Y40894D01*
X163004Y41161D01*
Y42122D01*
G01Y41161D02*
X161508Y40587D01*
G01Y38256D02*
X164606D01*
X163988Y38717D01*
G01X161508D02*
Y37795D01*
G01X164606Y35157D02*
X164504Y35465D01*
X164244Y35693D01*
X163933Y35846D01*
X163524Y35961D01*
X163055Y36000D01*
X162591Y35961D01*
X162181Y35846D01*
X161870Y35693D01*
X161610Y35465D01*
X161508Y35157D01*
X161610Y34850D01*
X161870Y34622D01*
X162181Y34469D01*
X162591Y34354D01*
X163055Y34315D01*
X163524Y34354D01*
X163933Y34469D01*
X164244Y34622D01*
X164504Y34850D01*
X164606Y35157D01*
G01X143008Y51457D02*
X171008D01*
Y41457D01*
X143008D01*
Y51457D01*
G01X162295Y76795D02*
X165394D01*
Y75835D01*
X165240Y75528D01*
X165031Y75339D01*
X164618Y75260D01*
X164205Y75339D01*
X163949Y75567D01*
X163791Y75835D01*
Y76795D01*
G01Y75835D02*
X162295Y75260D01*
G01X162657Y73579D02*
X162398Y73311D01*
X162295Y73004D01*
X162398Y72701D01*
X162709Y72429D01*
X163173Y72240D01*
X163638Y72161D01*
X164205D01*
X164669Y72240D01*
X165083Y72429D01*
X165291Y72661D01*
X165394Y72929D01*
X165291Y73236D01*
X165083Y73465D01*
X164776Y73618D01*
X164362Y73697D01*
X164000Y73618D01*
X163638Y73429D01*
X163433Y73197D01*
X163378Y72929D01*
X163484Y72622D01*
X163740Y72394D01*
X164205Y72161D01*
G01X162295Y59839D02*
X165394D01*
Y58878D01*
X165240Y58571D01*
X165031Y58382D01*
X164618Y58303D01*
X164205Y58382D01*
X163949Y58610D01*
X163791Y58878D01*
Y59839D01*
G01Y58878D02*
X162295Y58303D01*
G01Y55972D02*
X165394D01*
X164776Y56433D01*
G01X162295D02*
Y55512D01*
G01Y52874D02*
X165394D01*
X164776Y53335D01*
G01X162295D02*
Y52413D01*
G01X143795Y69173D02*
X171795D01*
Y59173D01*
X143795D01*
Y69173D01*
G01X161508Y96846D02*
X164606D01*
Y95886D01*
X164453Y95579D01*
X164244Y95390D01*
X163831Y95311D01*
X163417Y95390D01*
X163161Y95618D01*
X163004Y95886D01*
Y96846D01*
G01Y95886D02*
X161508Y95311D01*
G01Y92980D02*
X164606D01*
X163988Y93441D01*
G01X161508D02*
Y92520D01*
G01X164091Y90610D02*
X164402Y90382D01*
X164555Y90110D01*
X164606Y89807D01*
X164504Y89421D01*
X164244Y89154D01*
X163933Y89079D01*
X163626Y89114D01*
X163366Y89268D01*
X162850Y90035D01*
X162488Y90382D01*
X161972Y90610D01*
X161508Y90685D01*
Y89079D01*
G01X143008Y106181D02*
X171008D01*
Y96181D01*
X143008D01*
Y106181D01*
G01X143795Y87677D02*
X171795D01*
Y77677D01*
X143795D01*
Y87677D01*
G01X153697Y123110D02*
Y125610D01*
X154228D01*
X154445Y125484D01*
X154602Y125319D01*
X154736Y125067D01*
X154843Y124776D01*
X154870Y124358D01*
X154843Y123945D01*
X154736Y123654D01*
X154602Y123402D01*
X154445Y123236D01*
X154228Y123110D01*
X153697D01*
G01X155972Y125193D02*
X156134Y125445D01*
X156319Y125567D01*
X156535Y125610D01*
X156799Y125528D01*
X156988Y125319D01*
X157039Y125067D01*
X157012Y124819D01*
X156906Y124610D01*
X156374Y124193D01*
X156134Y123902D01*
X155972Y123484D01*
X155921Y123110D01*
X157039D01*
G01X165984Y114110D02*
X149984D01*
Y122110D01*
X165984D01*
Y114110D01*
G01X161484D02*
Y122110D01*
G01X161984Y114110D02*
Y122110D01*
G01X167441Y183953D02*
Y211953D01*
X177441D01*
Y183953D01*
X167441D01*
G01X178323Y202453D02*
Y205551D01*
X179283D01*
X179591Y205398D01*
X179780Y205189D01*
X179858Y204776D01*
X179780Y204362D01*
X179551Y204106D01*
X179283Y203949D01*
X178323D01*
G01X179283D02*
X179858Y202453D01*
G01X182650D02*
Y205551D01*
X181232Y203331D01*
X183146D01*
G01X220591Y51669D02*
Y79669D01*
X230591D01*
Y51669D01*
X220591D01*
G01X221650Y116839D02*
Y113740D01*
X220689D01*
X220382Y113894D01*
X220193Y114102D01*
X220114Y114516D01*
X220193Y114929D01*
X220421Y115185D01*
X220689Y115343D01*
X221650D01*
G01X220689D02*
X220114Y116839D01*
G01X217783D02*
Y113740D01*
X218244Y114358D01*
G01Y116839D02*
X217323D01*
G01X215413Y115547D02*
X215146Y115185D01*
X214913Y114980D01*
X214610Y114878D01*
X214339Y114980D01*
X214150Y115185D01*
X213996Y115496D01*
X213957Y115858D01*
X213996Y116165D01*
X214150Y116476D01*
X214378Y116736D01*
X214646Y116839D01*
X214953Y116736D01*
X215220Y116425D01*
X215374Y115961D01*
X215413Y115445D01*
X215335Y114772D01*
X215220Y114413D01*
X215031Y114051D01*
X214760Y113791D01*
X214492Y113740D01*
X214224Y113843D01*
X214035Y114102D01*
G01X230984Y135339D02*
Y107339D01*
X220984D01*
Y135339D01*
X230984D01*
G01X220984Y160724D02*
Y188724D01*
X230984D01*
Y160724D01*
X220984D01*
G01X198543Y185134D02*
Y213134D01*
X208543D01*
Y185134D01*
X198543D01*
G01X209425Y203634D02*
Y206732D01*
X210386D01*
X210693Y206579D01*
X210882Y206370D01*
X210961Y205957D01*
X210882Y205543D01*
X210654Y205287D01*
X210386Y205130D01*
X209425D01*
G01X210386D02*
X210961Y203634D01*
G01X213291D02*
X213559Y203685D01*
X213866Y203839D01*
X214059Y204098D01*
X214134Y204461D01*
X214059Y204823D01*
X213827Y205130D01*
X213484Y205287D01*
X213098D01*
X212870Y205390D01*
X212677Y205650D01*
X212602Y206008D01*
X212717Y206370D01*
X212984Y206630D01*
X213291Y206732D01*
X213598Y206630D01*
X213866Y206370D01*
X213980Y206008D01*
X213906Y205650D01*
X213713Y205390D01*
X213484Y205287D01*
X213098D01*
X212756Y205130D01*
X212524Y204823D01*
X212449Y204461D01*
X212524Y204098D01*
X212717Y203839D01*
X213024Y203685D01*
X213291Y203634D01*
G01X229925Y70169D02*
Y73268D01*
X230886D01*
X231193Y73114D01*
X231382Y72906D01*
X231461Y72492D01*
X231382Y72079D01*
X231154Y71823D01*
X230886Y71665D01*
X229925D01*
G01X230886D02*
X231461Y70169D01*
G01X233791D02*
Y73268D01*
X233331Y72650D01*
G01Y70169D02*
X234252D01*
G01X236047Y70787D02*
X236276Y70429D01*
X236583Y70220D01*
X236929Y70169D01*
X237236Y70220D01*
X237539Y70480D01*
X237732Y70787D01*
X237772Y71098D01*
X237693Y71461D01*
X237425Y71717D01*
X237157Y71823D01*
X236815D01*
G01X237157D02*
X237390Y71976D01*
X237579Y72236D01*
X237657Y72543D01*
X237579Y72854D01*
X237390Y73114D01*
X237043Y73268D01*
X236697Y73217D01*
X236354Y73008D01*
G01X246059Y61720D02*
Y58622D01*
X245098D01*
X244791Y58776D01*
X244602Y58984D01*
X244524Y59398D01*
X244602Y59811D01*
X244831Y60067D01*
X245098Y60224D01*
X246059D01*
G01X245098D02*
X244524Y61720D01*
G01X242193D02*
Y58622D01*
X242654Y59240D01*
G01Y61720D02*
X241732D01*
G01X238634D02*
Y58622D01*
X240051Y60843D01*
X238138D01*
G01X255394Y80220D02*
Y52220D01*
X245394D01*
Y80220D01*
X255394D01*
G01X245000Y107575D02*
Y135575D01*
X255000D01*
Y107575D01*
X245000D01*
G01X255000Y188094D02*
Y160094D01*
X245000D01*
Y188094D01*
X255000D01*
G01X231866Y179224D02*
Y182323D01*
X232827D01*
X233134Y182169D01*
X233323Y181961D01*
X233402Y181547D01*
X233323Y181134D01*
X233094Y180878D01*
X232827Y180720D01*
X231866D01*
G01X232827D02*
X233402Y179224D01*
G01X235004Y180516D02*
X235272Y180878D01*
X235504Y181083D01*
X235807Y181185D01*
X236079Y181083D01*
X236268Y180878D01*
X236421Y180567D01*
X236461Y180205D01*
X236421Y179898D01*
X236268Y179587D01*
X236039Y179327D01*
X235772Y179224D01*
X235465Y179327D01*
X235197Y179638D01*
X235043Y180102D01*
X235004Y180618D01*
X235083Y181291D01*
X235197Y181650D01*
X235386Y182012D01*
X235657Y182272D01*
X235925Y182323D01*
X236193Y182220D01*
X236382Y181961D01*
G01X244118Y169594D02*
Y166496D01*
X243157D01*
X242850Y166650D01*
X242661Y166858D01*
X242583Y167272D01*
X242661Y167685D01*
X242890Y167941D01*
X243157Y168098D01*
X244118D01*
G01X243157D02*
X242583Y169594D01*
G01X241094Y169130D02*
X240866Y169390D01*
X240598Y169543D01*
X240252Y169594D01*
X239906Y169492D01*
X239638Y169283D01*
X239449Y168921D01*
X239409Y168512D01*
X239484Y168098D01*
X239677Y167839D01*
X239945Y167634D01*
X240213Y167579D01*
X240480Y167634D01*
X240827Y167839D01*
X240713Y166496D01*
X239677D01*
G01X254335Y126075D02*
Y129173D01*
X255295D01*
X255602Y129020D01*
X255791Y128811D01*
X255870Y128398D01*
X255791Y127984D01*
X255563Y127728D01*
X255295Y127571D01*
X254335D01*
G01X255295D02*
X255870Y126075D01*
G01X258201D02*
Y129173D01*
X257740Y128555D01*
G01Y126075D02*
X258661D01*
G01X260457Y126539D02*
X260685Y126280D01*
X260953Y126126D01*
X261299Y126075D01*
X261646Y126177D01*
X261913Y126386D01*
X262102Y126748D01*
X262142Y127157D01*
X262067Y127571D01*
X261874Y127831D01*
X261606Y128035D01*
X261339Y128091D01*
X261071Y128035D01*
X260724Y127831D01*
X260839Y129173D01*
X261874D01*
G01X306000Y55394D02*
X334000D01*
Y45394D01*
X306000D01*
Y55394D01*
G01X311874Y138071D02*
X317874D01*
X320374Y135571D01*
X325374D01*
X327874Y138071D01*
X333874D01*
Y98071D01*
X311874D01*
Y138071D01*
G01X315264Y83469D02*
X312165D01*
Y84429D01*
X312319Y84736D01*
X312528Y84925D01*
X312941Y85004D01*
X313354Y84925D01*
X313610Y84697D01*
X313768Y84429D01*
Y83469D01*
G01Y84429D02*
X315264Y85004D01*
G01Y87335D02*
X312165D01*
X312783Y86874D01*
G01X315264D02*
Y87795D01*
G01Y90433D02*
X315213Y90701D01*
X315059Y91008D01*
X314799Y91201D01*
X314437Y91276D01*
X314075Y91201D01*
X313768Y90969D01*
X313610Y90626D01*
Y90240D01*
X313508Y90012D01*
X313248Y89819D01*
X312890Y89744D01*
X312528Y89858D01*
X312268Y90126D01*
X312165Y90433D01*
X312268Y90740D01*
X312528Y91008D01*
X312890Y91122D01*
X313248Y91047D01*
X313508Y90854D01*
X313610Y90626D01*
Y90240D01*
X313768Y89898D01*
X314075Y89665D01*
X314437Y89591D01*
X314799Y89665D01*
X315059Y89858D01*
X315213Y90165D01*
X315264Y90433D01*
G01X333764Y74134D02*
X305764D01*
Y84134D01*
X333764D01*
Y74134D01*
G01X311480Y223110D02*
X317480D01*
X319980Y220610D01*
X324980D01*
X327480Y223110D01*
X333480D01*
Y183110D01*
X311480D01*
Y223110D01*
G01X327795Y233008D02*
X311795D01*
Y241008D01*
X327795D01*
Y233008D01*
G01X324500Y46059D02*
X327598D01*
Y45098D01*
X327445Y44791D01*
X327236Y44602D01*
X326823Y44524D01*
X326409Y44602D01*
X326154Y44831D01*
X325996Y45098D01*
Y46059D01*
G01Y45098D02*
X324500Y44524D01*
G01Y42193D02*
X327598D01*
X326980Y42654D01*
G01X324500D02*
Y41732D01*
G01Y39169D02*
X325173Y39094D01*
X325740Y38980D01*
X326256Y38827D01*
X326823Y38634D01*
X327598Y38327D01*
Y39862D01*
G01X343531Y132370D02*
Y128787D01*
X343783Y128035D01*
X344291Y127535D01*
X344921Y127370D01*
X345555Y127535D01*
X346063Y128035D01*
X346315Y128787D01*
Y132370D01*
G01X350783Y127370D02*
Y132370D01*
X348437Y128787D01*
X351606D01*
G01X343138Y217409D02*
Y213827D01*
X343390Y213075D01*
X343898Y212575D01*
X344528Y212409D01*
X345161Y212575D01*
X345669Y213075D01*
X345921Y213827D01*
Y217409D01*
G01X348425Y216575D02*
X348803Y217075D01*
X349248Y217327D01*
X349756Y217409D01*
X350390Y217244D01*
X350831Y216827D01*
X350957Y216327D01*
X350894Y215827D01*
X350642Y215409D01*
X349374Y214575D01*
X348803Y213992D01*
X348425Y213157D01*
X348299Y212409D01*
X350957D01*
G01X315508Y242008D02*
Y244508D01*
X316039D01*
X316256Y244382D01*
X316413Y244217D01*
X316547Y243965D01*
X316654Y243673D01*
X316681Y243256D01*
X316654Y242843D01*
X316547Y242551D01*
X316413Y242299D01*
X316256Y242134D01*
X316039Y242008D01*
X315508D01*
G01X318291D02*
Y244508D01*
X317972Y244008D01*
G01Y242008D02*
X318610D01*
G01X323295Y233008D02*
Y241008D01*
G01X323795Y233008D02*
Y241008D01*
G01X367898Y112992D02*
X368205Y113185D01*
X368413Y113413D01*
X368516Y113685D01*
X368413Y113988D01*
X368205Y114220D01*
X367898Y114449D01*
X367484Y114528D01*
X365417D01*
G01X365933Y116130D02*
X365622Y116358D01*
X365469Y116630D01*
X365417Y116933D01*
X365520Y117319D01*
X365780Y117587D01*
X366091Y117661D01*
X366398Y117626D01*
X366657Y117472D01*
X367173Y116705D01*
X367535Y116358D01*
X368051Y116130D01*
X368516Y116055D01*
Y117661D01*
G01X379016Y113110D02*
X369016D01*
Y133110D01*
X379016D01*
Y113110D01*
G01X369661Y183555D02*
Y186654D01*
X370622D01*
X370929Y186500D01*
X371118Y186291D01*
X371197Y185878D01*
X371118Y185465D01*
X370890Y185209D01*
X370622Y185051D01*
X369661D01*
G01X370622D02*
X371197Y183555D01*
G01X373453D02*
X373528Y184228D01*
X373642Y184795D01*
X373795Y185311D01*
X373988Y185878D01*
X374295Y186654D01*
X372760D01*
G01X358780Y165055D02*
Y193055D01*
X368780D01*
Y165055D01*
X358780D01*
M02*
