G04 ================== begin FILE IDENTIFICATION RECORD ==================*
G04 Layout Name:  C:/USERS/USER/DESKTOP/DA CONVERTOR/allegro/DA CONVERTOR.brd*
G04 Film Name:    SolderT*
G04 File Format:  Gerber RS274X*
G04 File Origin:  Cadence Allegro 17.2-P019*
G04 Origin Date:  Wed Jul 31 14:31:59 2019*
G04 *
G04 Layer:  VIA CLASS/SOLDERMASK_TOP*
G04 Layer:  PIN/SOLDERMASK_TOP*
G04 Layer:  PACKAGE GEOMETRY/SOLDERMASK_TOP*
G04 Layer:  BOARD GEOMETRY/SOLDERMASK_TOP*
G04 *
G04 Offset:    (0.000 0.000)*
G04 Mirror:    No*
G04 Mode:      Positive*
G04 Rotation:  0*
G04 FullContactRelief:  No*
G04 UndefLineWidth:     0.000*
G04 ================== end FILE IDENTIFICATION RECORD ====================*
%FSLAX25Y25*MOIN*%
%IR0*IPPOS*OFA0.00000B0.00000*MIA0B0*SFA1.00000B1.00000*%
%ADD13C,.08*%
%ADD14C,.044016*%
%ADD15R,.08X.08*%
%ADD11C,.075*%
%ADD10C,.145*%
%ADD12R,.075X.075*%
%LPD*%
G75*
G54D10*
X19685Y19685D03*
Y255906D03*
X374016Y19685D03*
Y255906D03*
G54D11*
X19685Y107795D03*
Y117795D03*
Y127795D03*
Y137795D03*
X46063Y214724D03*
Y204724D03*
X63386Y53780D03*
Y63780D03*
Y73780D03*
Y83780D03*
Y93780D03*
Y103780D03*
X93386Y53780D03*
Y63780D03*
Y73780D03*
Y83780D03*
Y93780D03*
Y103780D03*
Y113780D03*
X95669Y188504D03*
Y198504D03*
Y208504D03*
X125669Y188504D03*
Y198504D03*
Y208504D03*
Y218504D03*
X307874Y103071D03*
Y113071D03*
Y123071D03*
X307480Y188110D03*
Y198110D03*
Y208110D03*
X337874Y103071D03*
Y113071D03*
Y123071D03*
Y133071D03*
X337480Y188110D03*
Y198110D03*
Y208110D03*
Y218110D03*
X374016Y128110D03*
Y118110D03*
G54D12*
X63386Y113780D03*
X95669Y218504D03*
X307874Y133071D03*
X307480Y218110D03*
G54D13*
X65354Y146457D03*
Y186457D03*
X91732Y164173D03*
X94094Y244094D03*
X137008Y46457D03*
X137795Y64173D03*
X137008Y101181D03*
X137795Y82677D03*
X131732Y164173D03*
X134094Y244094D03*
X139984Y118110D03*
X177008Y46457D03*
X177795Y64173D03*
X177008Y101181D03*
X177795Y82677D03*
X172441Y177953D03*
Y217953D03*
X225591Y45669D03*
Y85669D03*
X225984Y101339D03*
Y141339D03*
Y154724D03*
Y194724D03*
X203543Y179134D03*
Y219134D03*
X250394Y46220D03*
Y86220D03*
X250000Y101575D03*
Y141575D03*
Y154094D03*
Y194094D03*
X300000Y50394D03*
X299764Y79134D03*
X301795Y237008D03*
X340000Y50394D03*
X339764Y79134D03*
X363780Y159055D03*
Y199055D03*
G54D14*
X134094Y243406D03*
Y244094D03*
G54D15*
X175984Y118110D03*
X337795Y237008D03*
M02*
