G04 ================== begin FILE IDENTIFICATION RECORD ==================*
G04 Layout Name:  C:/USERS/USER/DESKTOP/DA CONVERTOR/allegro/DA CONVERTOR.brd*
G04 Film Name:    TOP*
G04 File Format:  Gerber RS274X*
G04 File Origin:  Cadence Allegro 17.2-P019*
G04 Origin Date:  Wed Jul 31 14:31:59 2019*
G04 *
G04 Layer:  ETCH/TOP*
G04 Layer:  PIN/TOP*
G04 Layer:  VIA CLASS/TOP*
G04 *
G04 Offset:    (0.000 0.000)*
G04 Mirror:    No*
G04 Mode:      Positive*
G04 Rotation:  0*
G04 FullContactRelief:  No*
G04 UndefLineWidth:     0.000*
G04 ================== end FILE IDENTIFICATION RECORD ====================*
%FSLAX25Y25*MOIN*%
%IR0*IPPOS*OFA0.00000B0.00000*MIA0B0*SFA1.00000B1.00000*%
%ADD11C,.06*%
%ADD13C,.065*%
%ADD12R,.06X.06*%
%ADD15C,.055*%
%ADD16R,.055X.055*%
%ADD14C,.024016*%
%ADD10C,.025*%
%ADD17C,.03937*%
%ADD18C,.019685*%
G75*
%LPD*%
G75*
G54D10*
X19685Y19685D03*
Y255906D03*
X374016Y19685D03*
Y255906D03*
G54D11*
X19685Y107795D03*
Y117795D03*
Y127795D03*
Y137795D03*
X46063Y214724D03*
Y204724D03*
X63386Y53780D03*
Y63780D03*
Y73780D03*
Y83780D03*
Y93780D03*
Y103780D03*
X93386Y53780D03*
Y63780D03*
Y73780D03*
Y83780D03*
Y93780D03*
Y103780D03*
Y113780D03*
X95669Y188504D03*
Y198504D03*
Y208504D03*
X125669Y188504D03*
Y198504D03*
Y208504D03*
Y218504D03*
X307874Y103071D03*
Y113071D03*
Y123071D03*
X307480Y188110D03*
Y198110D03*
Y208110D03*
X337874Y103071D03*
Y113071D03*
Y123071D03*
Y133071D03*
X337480Y188110D03*
Y198110D03*
Y208110D03*
Y218110D03*
X374016Y128110D03*
Y118110D03*
G54D12*
X63386Y113780D03*
X95669Y218504D03*
X307874Y133071D03*
X307480Y218110D03*
G54D13*
X65354Y146457D03*
Y186457D03*
X91732Y164173D03*
X94094Y244094D03*
X137008Y46457D03*
X137795Y64173D03*
X137008Y101181D03*
X137795Y82677D03*
X131732Y164173D03*
X134094Y244094D03*
X177008Y46457D03*
X177795Y64173D03*
X177008Y101181D03*
X177795Y82677D03*
X172441Y177953D03*
Y217953D03*
X225591Y45669D03*
Y85669D03*
X225984Y101339D03*
Y141339D03*
Y154724D03*
Y194724D03*
X203543Y179134D03*
Y219134D03*
X250394Y46220D03*
Y86220D03*
X250000Y101575D03*
Y141575D03*
Y154094D03*
Y194094D03*
X300000Y50394D03*
X299764Y79134D03*
X340000Y50394D03*
X339764Y79134D03*
X363780Y159055D03*
Y199055D03*
G54D14*
X134094Y243406D03*
Y244094D03*
G54D15*
X139984Y118110D03*
X301795Y237008D03*
G54D16*
X175984Y118110D03*
X337795Y237008D03*
G54D17*
G01X19685Y117795D02*
X33701Y103780D01*
X63386D01*
G01X307480Y188110D02*
Y176437D01*
X303543Y172500D01*
X175079D01*
X174811Y172232D01*
X170071D01*
X169803Y172500D01*
X102500D01*
X95669Y179331D01*
Y188504D01*
G01X337480Y208110D02*
X333610Y211980D01*
Y214244D01*
X332012Y215843D01*
Y219642D01*
X328075Y223579D01*
X303457D01*
X302012Y222134D01*
Y214512D01*
X297500Y210000D01*
X153937D01*
X131138Y187201D01*
Y186236D01*
X127937Y183035D01*
X123402D01*
X117500Y188937D01*
Y200335D01*
X125669Y208504D01*
G54D18*
G01X93386Y93780D02*
X71220D01*
X67870Y97130D01*
Y105638D01*
X67441Y106067D01*
Y109724D01*
X63386Y113780D01*
G01X95669Y198504D02*
X91181D01*
X90177Y197500D01*
X67500D01*
X65354Y195354D01*
Y186457D01*
G01X46063Y204724D02*
X91181D01*
Y208504D01*
X95669D01*
G01X93386Y53780D02*
X129685D01*
X137008Y46457D01*
G01X93386Y63780D02*
X132661D01*
X133055Y64173D01*
X137795D01*
G01X93386Y93780D02*
X129606D01*
X137008Y101181D01*
G01X93386Y83780D02*
X131953D01*
X133055Y82677D01*
X137795D01*
G01X93386Y113780D02*
X139984D01*
Y118110D01*
G01X125669Y198504D02*
X130154Y202988D01*
Y212654D01*
X135453Y217953D01*
X172441D01*
G01D02*
Y240059D01*
X168406Y244094D01*
X134094D01*
G01X225591Y45669D02*
X182535D01*
X181748Y46457D01*
X177008D01*
G01X177795Y64173D02*
X248425D01*
X250394Y66142D01*
Y86220D01*
G01X177008Y101181D02*
X221087D01*
X221244Y101339D01*
X225984D01*
G01X177795Y82677D02*
X217858D01*
X220850Y85669D01*
X225591D01*
G01X250000Y194094D02*
X245894Y189988D01*
X224024D01*
X224012Y190000D01*
X177764D01*
X175795Y188031D01*
Y181307D01*
X172441Y177953D01*
G01X301795Y237008D02*
X297559D01*
X297067Y237500D01*
X209469D01*
X207500Y235531D01*
Y223091D01*
X203543Y219134D01*
G01X250394Y46220D02*
X230882D01*
X230331Y45669D01*
X225591D01*
G01X250000Y101575D02*
X230961D01*
X230724Y101339D01*
X225984D01*
G01X225591Y85669D02*
X232421Y92500D01*
X295531D01*
X297500Y94469D01*
Y102697D01*
X307874Y113071D01*
G01X337480Y198110D02*
X332500Y193130D01*
Y160000D01*
X326594Y154094D01*
X250000D01*
G01X307480Y208110D02*
X311969D01*
X313626Y206453D01*
Y195594D01*
X311657Y193626D01*
X305622D01*
X305154Y194094D01*
X250000D01*
G01X225984Y194724D02*
X233760Y202500D01*
X303091D01*
X307480Y198110D01*
G01X337874Y113071D02*
X368976D01*
X374016Y118110D01*
G01X337480Y198110D02*
X358094D01*
X359039Y199055D01*
X363780D01*
M02*
